<?xml version="1.0" encoding="UTF-8" standalone="no"?>
<svg
   xmlns:dc="http://purl.org/dc/elements/1.1/"
   xmlns:cc="http://creativecommons.org/ns#"
   xmlns:rdf="http://www.w3.org/1999/02/22-rdf-syntax-ns#"
   xmlns:svg="http://www.w3.org/2000/svg"
   xmlns="http://www.w3.org/2000/svg"
   xmlns:sodipodi="http://sodipodi.sourceforge.net/DTD/sodipodi-0.dtd"
   xmlns:inkscape="http://www.inkscape.org/namespaces/inkscape"
   inkscape:export-ydpi="96"
   inkscape:export-xdpi="96"
   inkscape:export-filename="C:\Users\scien\Desktop\Coding Portfolio\images\landing-page.png"
   id="a594ac37-6d44-4297-8862-1cbd9c01c0b7"
   data-name="Layer 1"
   width="1126.19355"
   height="855"
   viewBox="0 0 1126.19355 855"
   version="1.1"
   sodipodi:docname="undraw_code_review_l1q9.svg"
   inkscape:version="1.0 (4035a4fb49, 2020-05-01)">
  <metadata
     id="metadata222">
    <rdf:RDF>
      <cc:Work
         rdf:about="">
        <dc:format>image/svg+xml</dc:format>
        <dc:type
           rdf:resource="http://purl.org/dc/dcmitype/StillImage" />
      </cc:Work>
    </rdf:RDF>
  </metadata>
  <defs
     id="defs220" />
  <sodipodi:namedview
     inkscape:document-rotation="0"
     pagecolor="#ffffff"
     bordercolor="#666666"
     borderopacity="1"
     objecttolerance="10"
     gridtolerance="10"
     guidetolerance="10"
     inkscape:pageopacity="0"
     inkscape:pageshadow="2"
     inkscape:window-width="1920"
     inkscape:window-height="1001"
     id="namedview218"
     showgrid="false"
     inkscape:zoom="0.93684211"
     inkscape:cx="563.0968"
     inkscape:cy="427.5"
     inkscape:window-x="-9"
     inkscape:window-y="-9"
     inkscape:window-maximized="1"
     inkscape:current-layer="a594ac37-6d44-4297-8862-1cbd9c01c0b7" />
  <title
     id="title117">code review</title>
  <path
     d="M581.7675,778.43794C339.36866,759.99137,50.29677,572.17166,65.01385,378.78054S359.70017,5.35846,602.099,23.805,984.03089,403.667,969.31381,597.05809,824.16633,796.88451,581.7675,778.43794Z"
     fill="#f2f2f2"
     id="path119"
     transform="translate(-36.90323 -22.5)"
     style="fill:#00ffff" />
  <ellipse
     cx="565.19355"
     cy="756"
     rx="506"
     ry="31"
     fill="#3f3d56"
     id="ellipse121" />
  <ellipse
     cx="565.19355"
     cy="755.5"
     rx="431"
     ry="20.5"
     opacity="0.1"
     id="ellipse123" />
  <rect
     x="196.19355"
     y="162"
     width="752"
     height="590"
     fill="#3f3d56"
     id="rect129"
     style="fill:#008080" />
  <path
     d="M600.54135,265.12914H415.02363a2.25143,2.25143,0,1,1,0-4.50285H600.54135a2.25143,2.25143,0,0,1,0,4.50285Z"
     transform="translate(-36.90323 -22.5)"
     fill="#f2f2f2"
     id="path131" />
  <path
     d="M803.6202,289.89486H511.83506a2.25143,2.25143,0,0,1,0-4.50286H803.6202a2.25143,2.25143,0,1,1,0,4.50286Z"
     transform="translate(-36.90323 -22.5)"
     fill="#f2f2f2"
     id="path133" />
  <path
     d="M601.44192,314.66057H415.9242a2.25143,2.25143,0,1,1,0-4.50286H601.44192a2.25143,2.25143,0,1,1,0,4.50286Z"
     transform="translate(-36.90323 -22.5)"
     fill="#f2f2f2"
     id="path135" />
  <path
     d="M803.6202,315.11086H618.10249a2.25143,2.25143,0,0,1,0-4.50286H803.6202a2.25143,2.25143,0,1,1,0,4.50286Z"
     transform="translate(-36.90323 -22.5)"
     fill="#f2f2f2"
     id="path137" />
  <path
     d="M601.8922,339.42629H416.37449a2.25143,2.25143,0,0,1,0-4.50286H601.8922a2.25143,2.25143,0,1,1,0,4.50286Z"
     transform="translate(-36.90323 -22.5)"
     fill="#f2f2f2"
     id="path139" />
  <path
     d="M602.34249,364.192H416.82477a2.25143,2.25143,0,0,1,0-4.50286H602.34249a2.25143,2.25143,0,1,1,0,4.50286Z"
     transform="translate(-36.90323 -22.5)"
     fill="#f2f2f2"
     id="path141" />
  <path
     d="M686.54592,265.57943H633.4122a2.25143,2.25143,0,0,1,0-4.50286h53.13372a2.25143,2.25143,0,1,1,0,4.50286Z"
     transform="translate(-36.90323 -22.5)"
     fill="#f2f2f2"
     id="path143" />
  <path
     d="M686.54592,339.42629H633.4122a2.25143,2.25143,0,0,1,0-4.50286h53.13372a2.25143,2.25143,0,1,1,0,4.50286Z"
     transform="translate(-36.90323 -22.5)"
     fill="#f2f2f2"
     id="path145" />
  <path
     d="M686.54592,363.74171H633.4122a2.25143,2.25143,0,1,1,0-4.50285h53.13372a2.25143,2.25143,0,1,1,0,4.50285Z"
     transform="translate(-36.90323 -22.5)"
     fill="#f2f2f2"
     id="path147" />
  <path
     d="M775.70249,363.74171H722.56877a2.25143,2.25143,0,0,1,0-4.50285h53.13372a2.25143,2.25143,0,1,1,0,4.50285Z"
     transform="translate(-36.90323 -22.5)"
     fill="#f2f2f2"
     id="path149" />
  <path
     d="M467.70706,289.89486H414.57335a2.25143,2.25143,0,0,1,0-4.50286h53.13371a2.25143,2.25143,0,0,1,0,4.50286Z"
     transform="translate(-36.90323 -22.5)"
     fill="#f2f2f2"
     id="path151" />
  <path
     d="M600.76649,629.86057H415.24877a2.25143,2.25143,0,0,1,0-4.50286H600.76649a2.25143,2.25143,0,0,1,0,4.50286Z"
     transform="translate(-36.90323 -22.5)"
     fill="#f2f2f2"
     id="path153" />
  <path
     d="M599.86592,679.392H414.3482a2.25143,2.25143,0,1,1,0-4.50286H599.86592a2.25143,2.25143,0,0,1,0,4.50286Z"
     transform="translate(-36.90323 -22.5)"
     fill="#f2f2f2"
     id="path155" />
  <path
     d="M600.3162,704.15771H414.79849a2.25143,2.25143,0,1,1,0-4.50285H600.3162a2.25143,2.25143,0,1,1,0,4.50285Z"
     transform="translate(-36.90323 -22.5)"
     fill="#f2f2f2"
     id="path157" />
  <path
     d="M679.56649,679.84229H626.43277a2.25143,2.25143,0,0,1,0-4.50286h53.13372a2.25143,2.25143,0,0,1,0,4.50286Z"
     transform="translate(-36.90323 -22.5)"
     fill="#f2f2f2"
     id="path159" />
  <path
     d="M679.56649,704.15771H626.43277a2.25142,2.25142,0,0,1,0-4.50285h53.13372a2.25142,2.25142,0,1,1,0,4.50285Z"
     transform="translate(-36.90323 -22.5)"
     fill="#f2f2f2"
     id="path161" />
  <path
     d="M768.72306,679.84229H715.58935a2.25143,2.25143,0,1,1,0-4.50286h53.13371a2.25143,2.25143,0,0,1,0,4.50286Z"
     transform="translate(-36.90323 -22.5)"
     fill="#f2f2f2"
     id="path163" />
  <path
     d="M803.84535,654.62629H512.0602a2.25143,2.25143,0,0,1,0-4.50286H803.84535a2.25143,2.25143,0,0,1,0,4.50286Z"
     transform="translate(-36.90323 -22.5)"
     fill="#f2f2f2"
     id="path165" />
  <path
     d="M467.9322,654.62629H414.79849a2.25143,2.25143,0,0,1,0-4.50286H467.9322a2.25143,2.25143,0,0,1,0,4.50286Z"
     transform="translate(-36.90323 -22.5)"
     fill="#f2f2f2"
     id="path167" />
  <path
     d="M803.84535,729.37371H512.0602a2.25143,2.25143,0,1,1,0-4.50285H803.84535a2.25142,2.25142,0,0,1,0,4.50285Z"
     transform="translate(-36.90323 -22.5)"
     fill="#f2f2f2"
     id="path169" />
  <path
     d="M467.9322,729.37371H414.79849a2.25143,2.25143,0,1,1,0-4.50285H467.9322a2.25143,2.25143,0,1,1,0,4.50285Z"
     transform="translate(-36.90323 -22.5)"
     fill="#f2f2f2"
     id="path171" />
  <polygon
     points="519.06 401.13 447.014 472.275 519.06 543.42 535.27 527.21 480.786 472.725 535.72 417.79 519.06 401.13"
     fill="#6c63ff"
     id="polygon173"
     style="fill:#00ffff" />
  <polygon
     points="625.327 401.13 697.373 472.275 625.327 543.42 609.117 527.21 663.602 472.725 608.667 417.79 625.327 401.13"
     fill="#6c63ff"
     id="polygon175"
     style="fill:#00ffff" />
  <circle
     style="fill:#f2f2f2"
     cx="216.19355"
     cy="177"
     r="9"
     fill="#6c63ff"
     id="circle177" />
  <circle
     style="fill:#f2f2f2"
     cx="240.19355"
     cy="177"
     r="9"
     fill="#6c63ff"
     id="circle179" />
  <circle
     style="fill:#f2f2f2"
     cx="264.19355"
     cy="177"
     r="9"
     fill="#6c63ff"
     id="circle181" />
  <rect
     x="196.19355"
     y="192"
     width="752"
     height="3"
     opacity="0.1"
     id="rect183" />
  <path
     d="M1163.09677,629.95357c0,63.77108-37.91089,86.03756-84.67635,86.03756s-84.67635-22.26648-84.67635-86.03756,84.67635-144.898,84.67635-144.898S1163.09677,566.18249,1163.09677,629.95357Z"
     transform="translate(-36.90323 -22.5)"
     fill="#f2f2f2"
     id="path185"
     style="fill:#00ff00" />
  <polygon
     points="1038.433 683.736 1039.3 630.365 1075.391 564.338 1039.436 621.993 1039.826 597.995 1064.699 550.226 1039.929 591.645 1039.929 591.645 1040.63 548.484 1067.265 510.453 1040.74 541.697 1041.178 462.556 1038.425 567.325 1038.651 563.003 1011.571 521.552 1038.217 571.3 1035.694 619.503 1035.619 618.223 1004.4 574.602 1035.524 622.743 1035.209 628.771 1035.152 628.862 1035.178 629.357 1028.776 751.653 1037.329 751.653 1038.355 688.485 1069.404 640.461 1038.433 683.736"
     fill="#3f3d56"
     id="polygon187" />
</svg>
